# xmcd
#
# Track frame offsets:
#	150
#	17326
#	32493
#	48919
#	64082
#	80310
#	101563
#	120880
#	143078
#	160874
#	184501
#	200937
#	218333
#
# Disc length: 3159 seconds
#
# Revision: 0
# Processed by: cddbd v1.5.2PL0 Copyright (c) Steve Scherf et al.
# Submitted via: audiograbber 1.83.01
#
DISCID=9b0c550d
DTITLE=Minos - Emi Sampler (καλοκαίρι 2001) - cd2
DYEAR=2001
DGENRE=
TTITLE0=Νοτης Σφακιανακης    - Καιγομαι 
TTITLE1=Πασχαλης Τερζης  - Μια Βροχη 
TTITLE2=Γιαννης Πλουταρχος  - Σαν Να Εισαι Εδω 
TTITLE3=Κατερινα Κούκα - Γιώργος Ζηκας  - Κουρσαρα 
TTITLE4=Νικόλας  - Τυφώνες
TTITLE5=Χριστόδουλος Σιγανός  - Έχω Γυρίσει Τη Σελίδα  
TTITLE6=Γιώργος Γιαννιάς  - Κούκλα Σε Βιτρίνα 
TTITLE7=Μίλτος Πασχαλίδης  - Βυθισμένες ’γκυρες 
TTITLE8=Απόστολος Ρίζος  - Να Μαστε Μαζί
TTITLE9=Σύννεφα Με Παντελόνια - Ταξίδεψε Με 
TTITLE10=Οναρ  - Μια Μέρα Καλοκαιριού 
TTITLE11=Μπάμπης Στόκας  - Ήρθες Πάλι 
TTITLE12=Πυξ Λαξ  - Ένα Παιδί Περπατάει Με Τα Χέρια
EXTD=
EXTT0=
EXTT1=
EXTT2=
EXTT3=
EXTT4=
EXTT5=
EXTT6=
EXTT7=
EXTT8=
EXTT9=
EXTT10=
EXTT11=
EXTT12=
PLAYORDER=
